# xmcd
#
# Track frame offsets: 
#        150
#        20623
#        40389
#        54170
#        71914
#        97195
#        124461
#        152645
#        165701
#        181470
#        199776
#        218811
#        232239
#        247416
#        266161
#
# Disc length: 3812 seconds
#
# Revision: 0
# Processed by: cddbd v1.4PL0 Copyright (c) Steve Scherf et al.
# Submitted via: ExactAudioCopy v0.95a3
#
DISCID=ed0ee20f
DTITLE=Various Artist - Afrofunkadelic Vibes
DYEAR=1900
DGENRE=
TTITLE0=The Equals - Funky Like A Train
TTITLE1=Bo Diddley - Bite You
TTITLE2=La Clave - Move Your Hands
TTITLE3=Hearts Of Stone - Thank You Fallentime Be Mice Elf Again
TTITLE4=Lyn Collins - You Can't Love Me If You Don't Respect Me
TTITLE5=Bobby Womack and The Roots - Summertime
TTITLE6=The Wild Mafnolias - (Somebody Got) Soul Soul Soul
TTITLE7=Riot - Put Your Gun Down Brother
TTITLE8=War - Me and My Baby Brother
TTITLE9=Sammy Davis Jr - Johnny Shaft
TTITLE10=Gladys Knight and The Pips - Who Is She
TTITLE11=Don Sebesky - Big Mama Cass
TTITLE12=Eddie Fidher Quintet - Two By Two
TTITLE13=John Cameron - Troublemaker
TTITLE14=Chakachas - Jungle Fever
EXTD=
EXTT0=
EXTT1=
EXTT2=
EXTT3=
EXTT4=
EXTT5=
EXTT6=
EXTT7=
EXTT8=
EXTT9=
EXTT10=
EXTT11=
EXTT12=
EXTT13=
EXTT14=
PLAYORDER=
